<svg viewBox="0 0 96 96" xmlns="http://www.w3.org/2000/svg" aria-hidden="true">
  <defs>
    <linearGradient id="tasko-bg" x1="12" y1="8" x2="86" y2="90" gradientUnits="userSpaceOnUse">
      <stop stop-color="#FDBA74"/>
      <stop offset="0.55" stop-color="#FB7185"/>
      <stop offset="1" stop-color="#EC4899"/>
    </linearGradient>
    <linearGradient id="tasko-check" x1="20" y1="18" x2="72" y2="76" gradientUnits="userSpaceOnUse">
      <stop stop-color="#FDE68A"/>
      <stop offset="1" stop-color="#FB923C"/>
    </linearGradient>
  </defs>
  <rect x="4" y="4" width="88" height="88" rx="22" fill="url(#tasko-bg)"/>
  <path d="M25 50.5c3.2-5.8 9.5-7 13.7-2.5l6.1 6.5 18.5-23.4c3.5-4.4 10-4.9 14.1-1.1 3.9 3.6 4.4 9.7 1 13.9L52.7 76.2c-3.6 4.6-10.4 4.9-14.4.6L24.7 63c-3.2-3.4-3.8-8.7.3-12.5Z" fill="url(#tasko-check)"/>
  <path d="M24 51c2-3.8 6.7-4.7 9.8-1.8l10.8 10.3" fill="none" stroke="rgba(255,255,255,0.6)" stroke-width="3" stroke-linecap="round"/>
</svg>
